<?xml version="1.0" encoding="UTF-8"?>
<svg version="1.1" xmlns="http://www.w3.org/2000/svg" width="534" height="467">
<path d="M0 0 C0.92425781 -0.00386719 1.84851563 -0.00773438 2.80078125 -0.01171875 C4.24517578 0.00568359 4.24517578 0.00568359 5.71875 0.0234375 C6.68167969 0.01183594 7.64460937 0.00023437 8.63671875 -0.01171875 C9.56097656 -0.00785156 10.48523438 -0.00398437 11.4375 0 C12.28248047 0.00338379 13.12746094 0.00676758 13.99804688 0.01025391 C16.69662976 0.48197189 17.63053342 1.19002891 19.21875 3.3984375 C18.90625 6.0859375 18.90625 6.0859375 18.21875 8.3984375 C15.57875 8.7284375 12.93875 9.0584375 10.21875 9.3984375 C10.21875 26.5584375 10.21875 43.7184375 10.21875 61.3984375 C65.98875 61.3984375 121.75875 61.3984375 179.21875 61.3984375 C179.21875 57.4384375 179.21875 53.4784375 179.21875 49.3984375 C177.23875 49.3984375 175.25875 49.3984375 173.21875 49.3984375 C171.28125 48.2109375 171.28125 48.2109375 170.21875 46.3984375 C170.63980263 41.97738487 170.63980263 41.97738487 172.21875 40.3984375 C175.85774175 40.14687481 179.50958673 40.21321524 183.15625 40.2109375 C184.18427734 40.19869141 185.21230469 40.18644531 186.27148438 40.17382812 C187.25310547 40.17189453 188.23472656 40.16996094 189.24609375 40.16796875 C190.15093506 40.16385986 191.05577637 40.15975098 191.98803711 40.15551758 C194.21875 40.3984375 194.21875 40.3984375 196.21875 42.3984375 C196.53125 44.8984375 196.53125 44.8984375 196.21875 47.3984375 C193.21875 49.3984375 193.21875 49.3984375 188.21875 49.3984375 C187.88875 65.8984375 187.55875 82.3984375 187.21875 99.3984375 C189.52875 99.3984375 191.83875 99.3984375 194.21875 99.3984375 C195.20875 100.0584375 196.19875 100.7184375 197.21875 101.3984375 C197.40625 104.0234375 197.40625 104.0234375 197.21875 106.3984375 C192.56117588 108.21251583 188.64354225 108.66856784 183.65625 108.6484375 C182.37621094 108.65359375 181.09617187 108.65875 179.77734375 108.6640625 C176.44960152 108.41566901 174.19757043 107.83924892 171.21875 106.3984375 C171.21875 104.4184375 171.21875 102.4384375 171.21875 100.3984375 C172.53875 99.7384375 173.85875 99.0784375 175.21875 98.3984375 C169.14606672 94.95012991 162.88927466 92.46505062 156.28125 90.2734375 C155.55502441 90.03222168 154.82879883 89.79100586 154.08056641 89.54248047 C151.800336 88.80263193 149.51271835 88.09449087 147.21875 87.3984375 C146.42936035 87.15456299 145.6399707 86.91068848 144.82666016 86.65942383 C136.9399889 84.35557897 128.92951105 83.02863915 120.83203125 81.71850586 C118.48591496 81.33871617 116.14133947 80.95039024 113.796875 80.56054688 C88.83989362 76.4401325 64.01697963 74.20892235 38.71875 74.2109375 C37.6123114 74.20957794 37.6123114 74.20957794 36.48352051 74.20819092 C27.64839499 74.20942453 19.05958919 74.6617009 10.21875 75.3984375 C10.21875 83.6484375 10.21875 91.8984375 10.21875 100.3984375 C12.52875 100.3984375 14.83875 100.3984375 17.21875 100.3984375 C19.21875 102.3984375 19.21875 102.3984375 19.46875 104.8984375 C19.21875 107.3984375 19.21875 107.3984375 17.21875 109.3984375 C15.00390625 109.65722656 15.00390625 109.65722656 12.28125 109.6640625 C11.30414063 109.66664063 10.32703125 109.66921875 9.3203125 109.671875 C8.29679687 109.66414063 7.27328125 109.65640625 6.21875 109.6484375 C5.19523438 109.65617187 4.17171875 109.66390625 3.1171875 109.671875 C2.14007813 109.66929687 1.16296875 109.66671875 0.15625 109.6640625 C-0.74222656 109.66180664 -1.64070312 109.65955078 -2.56640625 109.65722656 C-4.78125 109.3984375 -4.78125 109.3984375 -6.78125 107.3984375 C-7.03125 104.8984375 -7.03125 104.8984375 -6.78125 102.3984375 C-5.79125 101.4084375 -5.79125 101.4084375 -4.78125 100.3984375 C-2.80125 100.3984375 -0.82125 100.3984375 1.21875 100.3984375 C1.21875 70.3684375 1.21875 40.3384375 1.21875 9.3984375 C-1.42125 9.0684375 -4.06125 8.7384375 -6.78125 8.3984375 C-7.46875 6.0859375 -7.46875 6.0859375 -7.78125 3.3984375 C-5.5475911 0.29254404 -3.713731 0.01487192 0 0 Z " fill="#0B0B0B" transform="translate(167.78125,138.6015625)"/>
<path d="M0 0 C3.3 0 6.6 0 10 0 C10 5.61 10 11.22 10 17 C14.62 17 19.24 17 24 17 C24 11.39 24 5.78 24 0 C30.93359375 -0.09765625 30.93359375 -0.09765625 33 0 C34 1 34 1 34.12025452 2.79066467 C34.11803391 3.57009933 34.11581329 4.349534 34.11352539 5.15258789 C34.11344986 6.03342545 34.11337433 6.914263 34.11329651 7.8217926 C34.10813522 8.77907761 34.10297394 9.73636261 34.09765625 10.72265625 C34.0962413 11.69786728 34.09482635 12.67307831 34.09336853 13.67784119 C34.08775133 16.80609143 34.07519593 19.93427123 34.0625 23.0625 C34.05748722 25.17773334 34.05292393 27.29296781 34.04882812 29.40820312 C34.03777631 34.60549607 34.02050016 39.80273608 34 45 C30.7 45 27.4 45 24 45 C24 39.06 24 33.12 24 27 C19.38 27 14.76 27 10 27 C10 32.94 10 38.88 10 45 C6.7 45 3.4 45 0 45 C0 30.15 0 15.3 0 0 Z " fill="#1F1F1F" transform="translate(251,257)"/>
<path d="M0 0 C3.1106778 2.58244949 4.80791364 4.90114252 6.0625 8.8125 C6.0625 12.1125 6.0625 15.4125 6.0625 18.8125 C-1.8575 19.1425 -9.7775 19.4725 -17.9375 19.8125 C-15.39421716 22.95535448 -15.39421716 22.95535448 -12.89453125 23.10546875 C-11.83298828 23.05326172 -11.83298828 23.05326172 -10.75 23 C-9.491875 22.938125 -8.23375 22.87625 -6.9375 22.8125 C-6.6075 22.1525 -6.2775 21.4925 -5.9375 20.8125 C-1.9775 20.8125 1.9825 20.8125 6.0625 20.8125 C3.46642332 26.82446705 0.08047587 30.25376209 -5.9375 32.8125 C-12.23386387 33.62459383 -17.45021146 32.99512735 -22.9375 29.8125 C-28.42086018 24.03274198 -29.33933954 19.52731883 -29.1875 11.7265625 C-28.7617625 6.76405982 -27.15418896 4.02918896 -23.6875 0.5625 C-16.44370993 -4.04718459 -7.35521457 -4.82054232 0 0 Z M-16.9375 6.8125 C-17.5975 8.1325 -18.2575 9.4525 -18.9375 10.8125 C-13.6575 10.8125 -8.3775 10.8125 -2.9375 10.8125 C-5.3509606 6.80329243 -5.3509606 6.80329243 -7.875 6.16796875 C-8.555625 6.11253906 -9.23625 6.05710937 -9.9375 6 C-10.618125 5.93167969 -11.29875 5.86335938 -12 5.79296875 C-14.15815829 5.71569229 -14.15815829 5.71569229 -16.9375 6.8125 Z " fill="#121212" transform="translate(223.9375,270.1875)"/>
<path d="M0 0 C0 0.66 0 1.32 0 2 C0.66 2 1.32 2 2 2 C5.74198684 7.9248125 5 10.00488251 5 18 C-2.92 18.33 -10.84 18.66 -19 19 C-16.2901852 22.35123544 -16.2901852 22.35123544 -12.5 22.3125 C-8.8887493 22.27142087 -8.8887493 22.27142087 -6 20 C-3.30078125 19.8046875 -3.30078125 19.8046875 -0.3125 19.875 C1.17830078 19.90207031 1.17830078 19.90207031 2.69921875 19.9296875 C3.45847656 19.95289063 4.21773438 19.97609375 5 20 C3.0544343 25.17110883 0.97189612 27.71597462 -3.6875 30.75 C-9.29335317 32.86541629 -13.97209 32.58431305 -19.6875 30.9375 C-24.22947646 28.28087226 -27.63367534 24.73264932 -30 20 C-30.74042756 13.9078745 -31.0314177 8.5581636 -27.3125 3.4375 C-23.14484128 -1.2450443 -19.50415115 -3.40372622 -13.125 -4.0078125 C-8.24101039 -3.98985666 -4.07659691 -2.71773128 0 0 Z M-18 6 C-18.66 7.32 -19.32 8.64 -20 10 C-14.72 10 -9.44 10 -4 10 C-8.20081038 4.76948703 -8.20081038 4.76948703 -12.125 4.625 C-15.06419128 4.9153584 -15.06419128 4.9153584 -18 6 Z " fill="#141414" transform="translate(374,271)"/>
<path d="M0 0 C3.46679688 0.04882812 3.46679688 0.04882812 6.93359375 0.09765625 C6.93359375 4.05765625 6.93359375 8.01765625 6.93359375 12.09765625 C8.43921875 11.70578125 9.94484375 11.31390625 11.49609375 10.91015625 C16.80200214 9.85047766 19.33298783 10.28095875 23.93359375 13.09765625 C27.62318352 17.03321867 28.0579049 20.60836038 28.03125 25.859375 C28.02802734 26.97763672 28.02480469 28.09589844 28.02148438 29.24804688 C28.01310547 30.41529297 28.00472656 31.58253906 27.99609375 32.78515625 C27.99158203 33.96400391 27.98707031 35.14285156 27.98242188 36.35742188 C27.97062648 39.27088414 27.95416645 42.18424488 27.93359375 45.09765625 C24.96359375 45.09765625 21.99359375 45.09765625 18.93359375 45.09765625 C18.87300781 43.628125 18.81242187 42.15859375 18.75 40.64453125 C18.66557908 38.7122302 18.58093185 36.77993903 18.49609375 34.84765625 C18.45677734 33.87957031 18.41746094 32.91148437 18.37695312 31.9140625 C18.33505859 30.97949219 18.29316406 30.04492188 18.25 29.08203125 C18.21334229 28.22319336 18.17668457 27.36435547 18.13891602 26.47949219 C17.94655861 24.24805482 17.54513131 22.24783101 16.93359375 20.09765625 C12.85971213 19.70219253 12.85971213 19.70219253 9.26635742 21.2902832 C7.50763017 23.67530937 7.50705571 25.25587247 7.421875 28.203125 C7.38642578 29.18603516 7.35097656 30.16894531 7.31445312 31.18164062 C7.28061523 32.71788086 7.28061523 32.71788086 7.24609375 34.28515625 C7.21193359 35.32091797 7.17777344 36.35667969 7.14257812 37.42382812 C7.06006733 39.98166285 6.99092803 42.53915348 6.93359375 45.09765625 C5.45452483 45.12454841 3.97531892 45.14400246 2.49609375 45.16015625 C1.67238281 45.17175781 0.84867188 45.18335938 0 45.1953125 C-2.06640625 45.09765625 -2.06640625 45.09765625 -3.06640625 44.09765625 C-3.16425966 42.75221298 -3.1943861 41.40173062 -3.19580078 40.05273438 C-3.19895294 39.19514526 -3.2021051 38.33755615 -3.20535278 37.45397949 C-3.20332855 36.52170532 -3.20130432 35.58943115 -3.19921875 34.62890625 C-3.20017548 33.67826294 -3.2011322 32.72761963 -3.20211792 31.74816895 C-3.20279982 29.73396743 -3.20094487 27.71976373 -3.19677734 25.70556641 C-3.19142923 22.6109527 -3.19672202 19.51648415 -3.203125 16.421875 C-3.20246422 14.47005176 -3.20118306 12.51822861 -3.19921875 10.56640625 C-3.20124298 9.63413208 -3.20326721 8.70185791 -3.20535278 7.74133301 C-3.20220062 6.8837439 -3.19904846 6.02615479 -3.19580078 5.14257812 C-3.19500519 4.38392456 -3.19420959 3.625271 -3.19338989 2.84362793 C-3.00511966 0.25499138 -2.58306257 0.1220729 0 0 Z " fill="#1C1C1C" transform="translate(163.06640625,256.90234375)"/>
<path d="M0 0 C4.20728145 3.71806268 7.16577715 6.52317661 8.20703125 12.21484375 C8.55363354 18.60683483 7.76023897 22.91959181 3.453125 27.75 C-0.53760988 31.42288874 -4.19891459 33.56978568 -9.75 33.875 C-15.28886556 33.5919234 -19.85366183 31.71181146 -23.88671875 27.87890625 C-28.06906925 23.07339751 -28.6753785 19.08600309 -28.5859375 12.94140625 C-28.07809799 8.17496967 -26.17468667 5.03843821 -22.62890625 1.87109375 C-15.59102536 -3.44137118 -8.00421556 -3.92659631 0 0 Z M-15.3125 7.375 C-15.3125 8.035 -15.3125 8.695 -15.3125 9.375 C-16.3025 9.705 -17.2925 10.035 -18.3125 10.375 C-18.78743725 15.21935994 -19.03668203 18.3313259 -16.1875 22.4375 C-12.77868264 24.73474648 -11.33766948 25.12971928 -7.3125 24.375 C-4.28321892 23.10175163 -4.28321892 23.10175163 -2.3125 20.375 C-1.58479643 17.22944264 -1.61207204 14.52412411 -2.3125 11.375 C-4.31429995 8.20515739 -4.31429995 8.20515739 -7.3125 6.375 C-10.52300376 5.91635661 -12.22036415 6.34428805 -15.3125 7.375 Z " fill="#181818" transform="translate(317.3125,269.625)"/>
<path d="M0 0 C4.14581887 -0.02886751 8.29161216 -0.04675327 12.4375 -0.0625 C14.21350586 -0.07506836 14.21350586 -0.07506836 16.02539062 -0.08789062 C17.15009766 -0.09111328 18.27480469 -0.09433594 19.43359375 -0.09765625 C20.47572021 -0.10289307 21.51784668 -0.10812988 22.59155273 -0.11352539 C25 0 25 0 26 1 C26.14115161 3.67058851 26.04247107 6.32432238 26 9 C23.36 9.33 20.72 9.66 18 10 C18.00785522 11.4837915 18.00785522 11.4837915 18.01586914 12.99755859 C18.03394523 16.66144916 18.04544158 20.32533577 18.05493164 23.98925781 C18.05996588 25.57617861 18.06679369 27.16309477 18.07543945 28.75 C18.08754482 31.02865749 18.09323733 33.30725376 18.09765625 35.5859375 C18.10281754 36.29744965 18.10797882 37.00896179 18.11329651 37.74203491 C18.11387171 42.77225659 18.11387171 42.77225659 17 45 C14.03 45 11.06 45 8 45 C7.505 27.675 7.505 27.675 7 10 C4.69 9.67 2.38 9.34 0 9 C0 6.03 0 3.06 0 0 Z " fill="#191919" transform="translate(133,257)"/>
<path d="M0 0 C3.46679688 0.04882812 3.46679688 0.04882812 6.93359375 0.09765625 C6.93359375 3.72765625 6.93359375 7.35765625 6.93359375 11.09765625 C8.25359375 11.09765625 9.57359375 11.09765625 10.93359375 11.09765625 C10.93359375 14.06765625 10.93359375 17.03765625 10.93359375 20.09765625 C9.61359375 20.09765625 8.29359375 20.09765625 6.93359375 20.09765625 C6.93359375 28.34765625 6.93359375 36.59765625 6.93359375 45.09765625 C3.96359375 45.09765625 0.99359375 45.09765625 -2.06640625 45.09765625 C-2.06640625 36.84765625 -2.06640625 28.59765625 -2.06640625 20.09765625 C-3.71640625 20.09765625 -5.36640625 20.09765625 -7.06640625 20.09765625 C-7.06640625 17.12765625 -7.06640625 14.15765625 -7.06640625 11.09765625 C-5.41640625 11.09765625 -3.76640625 11.09765625 -2.06640625 11.09765625 C-2.15019531 10.38738281 -2.23398437 9.67710937 -2.3203125 8.9453125 C-2.47306641 7.56666016 -2.47306641 7.56666016 -2.62890625 6.16015625 C-2.73332031 5.24363281 -2.83773438 4.32710938 -2.9453125 3.3828125 C-2.98527344 2.62871094 -3.02523438 1.87460937 -3.06640625 1.09765625 C-2.06640625 0.09765625 -2.06640625 0.09765625 0 0 Z " fill="#111111" transform="translate(332.06640625,256.90234375)"/>
<path d="M0 0 C2.97 0 5.94 0 9 0 C9 14.85 9 29.7 9 45 C6.03 45 3.06 45 0 45 C0 30.15 0 15.3 0 0 Z " fill="#121212" transform="translate(383,257)"/>
</svg>
